inDegrees=no
num_controls=7
num_derivatives=13
num_iterations=80
num_multipliers=7
num_parameters=0
num_slacks=7
num_states=26
objective=0.429040
objective_accelerations=0.054668
objective_balance=0.002698
objective_effort=0.014535
objective_height=0.351155
objective_ligament=0.005983
solver_duration=1509.151725
status=Solve_Succeeded
success=true
DataType=double
version=3
OpenSimVersion=4.5
endheader
time	/jointset/ground_pelvis/pelvis_tilt/value	/jointset/ground_pelvis/pelvis_tx/value	/jointset/ground_pelvis/pelvis_ty/value	/jointset/hip_l/hip_flexion_l/value	/jointset/hip_l/hip_adduction_l/value	/jointset/hip_l/hip_rotation_l/value	/jointset/back/lumbar_extension/value	/jointset/patellofemoral_l/patellar_flexion_l/value	/jointset/knee_l/knee_flexion_l/value	/jointset/knee_l/knee_adduction_l/value	/jointset/knee_l/knee_rotation_l/value	/jointset/ankle_l/ankle_angle_l/value	/jointset/subtalar_l/subtalar_angle_l/value	/jointset/ground_pelvis/pelvis_tilt/speed	/jointset/ground_pelvis/pelvis_tx/speed	/jointset/ground_pelvis/pelvis_ty/speed	/jointset/hip_l/hip_flexion_l/speed	/jointset/hip_l/hip_adduction_l/speed	/jointset/hip_l/hip_rotation_l/speed	/jointset/back/lumbar_extension/speed	/jointset/patellofemoral_l/patellar_flexion_l/speed	/jointset/knee_l/knee_flexion_l/speed	/jointset/knee_l/knee_adduction_l/speed	/jointset/knee_l/knee_rotation_l/speed	/jointset/ankle_l/ankle_angle_l/speed	/jointset/subtalar_l/subtalar_angle_l/speed	/forceset/tau_hip_flexion_l	/forceset/tau_hip_adduction_l	/forceset/tau_hip_rotation_l	/forceset/tau_knee_flexion_l	/forceset/tau_ankle_angle_l	/forceset/tau_subtalar_angle_l	/forceset/tau_lumbar_extension	lambda_cid13_p0	lambda_cid13_p1	lambda_cid13_p2	lambda_cid13_p3	lambda_cid13_p4	lambda_cid13_p5	lambda_cid14_p0	/jointset/ground_pelvis/pelvis_tilt/accel	/jointset/ground_pelvis/pelvis_tx/accel	/jointset/ground_pelvis/pelvis_ty/accel	/jointset/hip_l/hip_flexion_l/accel	/jointset/hip_l/hip_adduction_l/accel	/jointset/hip_l/hip_rotation_l/accel	/jointset/back/lumbar_extension/accel	/jointset/patellofemoral_l/patellar_flexion_l/accel	/jointset/knee_l/knee_flexion_l/accel	/jointset/knee_l/knee_adduction_l/accel	/jointset/knee_l/knee_rotation_l/accel	/jointset/ankle_l/ankle_angle_l/accel	/jointset/subtalar_l/subtalar_angle_l/accel	gamma_cid13_p0	gamma_cid13_p1	gamma_cid13_p2	gamma_cid13_p3	gamma_cid13_p4	gamma_cid13_p5	gamma_cid14_p0
1	-0.4908861560737476	0.01079414260335483	0.6169356383074986	1.657959758930093	-0.3543367967819036	0.1365590390669831	-0.4363193502072772	1.433673817884293	1.433673817884311	0.02200611426140103	-0.1745230803187976	0.4340881441641453	0.2359322502170337	-0.1372025971791428	-0.007406425425310627	0.02604263385232358	0.04910228355951125	0.003284255019257812	-0.05564212335038826	-4.955406967446292e-05	-0.1423079239771067	-0.1423079239771177	0.002689226975366275	-0.0001478808933736917	-0.06656116784416866	-0.03366013717228767	-0.2559511187666418	0.04436829655034991	-0.005669032041794186	-0.2456257987212925	-0.07719292733128505	0.01045268210206382	0.2169878147375447	-55.93512368217849	8.070588972550723	-4.784636416718992	7.670474933888115	-536.9966479279672	-62.53386074329641	-0.0241558761515364	1.795095015025713	0.2307822141774782	1.830976090729146	-6.414212517029855	-0.1992692927255058	-1.576759620402249	-0.02678470631863866	-5.217139989408146	-5.21713998940815	-0.6743174501627197	-0.03250374734252753	-1.047231037940165	-0.9211655019090341	-3.621950560965383e-09	-1.26154717240163e-07	3.734177775092917e-08	-6.333976304864274e-09	-6.776949717260752e-09	-1.319908213978567e-07	-8.189576000091962e-09
1.01	-0.4921690732303582	0.01073146757194567	0.6172874572979119	1.658131105652657	-0.3543131661068346	0.1359245359902235	-0.4363202420828665	1.431990001816825	1.431990001816859	0.02199962645945117	-0.1745245476197323	0.433369922373383	0.2355507289769376	-0.1193586337396672	-0.00513689281811911	0.04431901546088383	-0.01483766179523467	0.001449142154245733	-0.07125565140556948	-0.0001336860239019615	-0.1944759588556397	-0.1944759588556266	-0.003986219175723268	-0.0001457808508382032	-0.07712167158777851	-0.04264718019684802	-0.2567370263173482	0.04457191753340086	-0.005736079751091414	-0.2442620824440048	-0.0783741663113269	0.01050306985284185	0.2174204254573596	-56.29792983612419	8.041826404853722	-4.699632706578365	7.994241104572861	-536.967751120497	-62.37433516703586	-0.02418183664748997	1.782377398280006	0.2237899445555955	1.825644431348268	-6.384593795939006	-0.1745481591738866	-1.553239983382674	4.281367082592242e-05	-5.219733308650146	-5.219733308646524	-0.6640905982996974	0.01653523367487817	-1.066240416346453	-0.8879144957927595	-5.663831411461725e-09	-1.552401093755398e-07	4.142052317377906e-08	-1.018695685424104e-08	-1.219109111713955e-08	-1.46934263300144e-07	-1.161207528167145e-08
1.02	-0.4932728846745998	0.01069123809872154	0.6178219751514965	1.657662911271426	-0.3543076697355733	0.135133979515852	-0.4363221212272578	1.429783885786258	1.429783885786307	0.0219263977158504	-0.1745260002495156	0.4325449394704293	0.2350792491479831	-0.1013814547053308	-0.002917313788304404	0.06258240648659112	-0.0788059371996626	-0.0003426057421590466	-0.08685280287301492	-0.0002470078323039487	-0.2467679165971438	-0.2467679165971064	-0.01065896135551903	-0.000144946663370715	-0.08791339028239077	-0.05165185494393718	-0.257522933868051	0.04477553851645237	-0.005803127460374931	-0.242898366166717	-0.07955540529136941	0.01055345760362016	0.2178530361771785	-56.66589793587072	8.013330581147207	-4.613943804050257	8.318595341547677	-537.0614689637446	-62.20992789619473	-0.02420854372106918	1.821738133997872	0.2207914987021088	1.828377974158554	-6.419878526966253	-0.1905962990040302	-1.573484302855075	-0.03262267715347568	-5.241924562002362	-5.241924562002335	-0.6737766559039583	-0.03275691835609266	-1.093474028140658	-0.9246918464147759	-8.199240606550885e-09	-1.852656427580368e-07	4.49828996313397e-08	-1.309005928793672e-08	-1.803772895010766e-08	-1.629084341622917e-07	-1.496555253462489e-08
1.03	-0.4941963001250528	0.01067303899353697	0.6185390205297628	1.656554906104248	-0.3543198589452616	0.1341875834136685	-0.4363251404839493	1.42705424546728	1.427054245467297	0.02178644959360455	-0.1745274159386175	0.4316109370868836	0.2345177180660348	-0.08328380603879472	-0.0007224442250709537	0.08082050384358019	-0.1427987635339653	-0.002087167944423663	-0.1024211570912924	-0.0003478839358555468	-0.299180162749109	-0.2991801627490802	-0.01732960988326381	-0.0001367776945826191	-0.0989206281880091	-0.06065013586232056	-0.258033075505864	0.04493792992477218	-0.005853382327719753	-0.2415810225968236	-0.08031808430440995	0.01063711980529306	0.2181505636027208	-56.87658079559736	7.946784552533326	-4.526689557425581	8.463895318847946	-536.9548117567178	-62.09682357528553	-0.02424249590387304	1.806452296539629	0.2188409244159269	1.820596004789289	-6.389535481031791	-0.1651798262050428	-1.547746705550152	0.002523858618272105	-5.243873290442044	-5.243873290443362	-0.6635774361231703	0.01781278305998988	-1.109391858862008	-0.8867339598674177	-1.07396858051563e-08	-2.153007694185657e-07	4.854000701782596e-08	-1.598346908779892e-08	-2.388878001198486e-08	-1.788931226668869e-07	-1.831832548116377e-08
1.04	-0.4949382042761292	0.01067678983184112	0.6194382609592631	1.654806862514853	-0.3543492525060467	0.1330856566244559	-0.4363288997145366	1.423799882957054	1.423799882957038	0.02157982128910219	-0.1745287081423199	0.4305658536868637	0.2338663366258389	-0.06507919482993217	0.00147267490944119	0.09902141673336899	-0.2068136216430492	-0.003783475961382347	-0.1179589402790125	-0.000395002616436164	-0.3517123548470127	-0.3517123548469932	-0.02399499780754719	-0.0001202495832452934	-0.1101295935772113	-0.06962192659339608	-0.2585432171436778	0.04510032133309115	-0.005903637195050508	-0.2402636790269304	-0.0810807633174509	0.01072078200696411	0.2184480910282623	-57.09272100745986	7.880596136936072	-4.438809328811481	8.611294309409466	-536.9728902376011	-61.97961116517435	-0.02427737903540304	1.843130642463174	0.2208414129578406	1.820941080718505	-6.424284881922494	-0.1809454619428278	-1.567370096743589	-0.02187119255912792	-5.265913751190102	-5.265913751190177	-0.6727245352116732	-0.03108508984621059	-1.133819524857438	-0.919393808953185	-1.333773284537934e-08	-2.470976482827025e-07	5.26710077336328e-08	-1.915472400783638e-08	-2.972680679197183e-08	-1.953108287734211e-07	-2.197281333435668e-08
1.05	-0.4954975639404512	0.01070259331178275	0.6205192694950727	1.652418582457479	-0.3543953537702128	0.131828569856906	-0.4363323129985824	1.420019674380318	1.420019674380284	0.02130657072550972	-0.1745297477111824	0.4294077789366183	0.2331254823949522	-0.0467786584161727	0.003698104282490569	0.1171687580778599	-0.2708443986357988	-0.005428527459173021	-0.1334492095615468	-0.0002239305679298086	-0.404342817560048	-0.4043428175600742	-0.03065358513463032	-8.473742758656731e-05	-0.1215087504489873	-0.07853542526489624	-0.2590906761488188	0.04532057283949228	-0.005947620110713753	-0.2387162543820402	-0.0817998919871596	0.01081232765756997	0.2188619443682707	-57.28026445888801	7.799707145450741	-4.341423921211204	8.656384030171077	-536.8808306079221	-61.83807399463662	-0.02431859249607216	1.825626039416778	0.2249016809502828	1.809893636860324	-6.39277702252111	-0.1550500453152866	-1.538508293407097	0.04616529125574356	-5.26362592598479	-5.26362592599162	-0.6622323016063805	0.02130384856918309	-1.143488702187867	-0.875266087362211	-1.593757994315293e-08	-2.789495819032019e-07	5.681994261598091e-08	-2.233466158787932e-08	-3.556442656314972e-08	-2.117420666800159e-07	-2.563672977838253e-08
1.06	-0.4958734960609196	0.01075095268174925	0.6217814040394365	1.649389934047264	-0.3544576585596806	0.1304168498066512	-0.4363321024741948	1.415712758497526	1.415712758497474	0.02096677299462047	-0.1745303452624341	0.4281352076308852	0.2322959055391277	-0.0283936860590346	0.005983852914414842	0.1352466184441761	-0.3348872922113454	-0.007024181021686807	-0.1488855968200309	0.0003298969885826271	-0.4570538160580665	-0.4570538160581387	-0.0373044312677049	-3.184606003729043e-05	-0.1330289046747712	-0.08736645158094823	-0.2596381351539465	0.04554082434589235	-0.005991603026358708	-0.2371688297371511	-0.08251902065687153	0.01090387330817191	0.2192757977082934	-57.47359941281286	7.719271047228241	-4.243469736909755	8.704444777027913	-536.9164556345681	-61.6934621812206	-0.02436093700221648	1.8600178311389	0.2329052647328134	1.807044885083563	-6.426708198481889	-0.1710658748874384	-1.5565936919335	0.05467990904212598	-5.282020908186753	-5.282020908186865	-0.6711762964099625	-0.02760924746807387	-1.162018995658998	-0.9028993378635363	-1.841472494093581e-08	-3.106400185961782e-07	6.061938645907066e-08	-2.629540120707359e-08	-3.945971973540728e-08	-2.241881283516685e-07	-2.990644146733563e-08
1.07	-0.4960656896289017	0.01082264651532347	0.623223792035588	1.645721436463179	-0.3545357074514119	0.1288511370656501	-0.436323209086431	1.410878689848293	1.410878689848275	0.02056052364621395	-0.1745303667778277	0.4267470267222568	0.2313785730959347	-0.01008675782191437	0.008382464168237593	0.1532014748499762	-0.3987480096137134	-0.008581428618308212	-0.1642400994192467	0.001638846918693655	-0.509737843431766	-0.5097378434318155	-0.04394161183105696	2.458078087240373e-05	-0.1446014603112995	-0.09607339470073312	-0.2600057224551529	0.04562819253547617	-0.006019538882208029	-0.2355838265500377	-0.08266068679291505	0.01104404646006135	0.2197035038651639	-57.44576240749748	7.58166163156182	-4.139451713716059	8.40477079566589	-536.6875258903378	-61.61221137962134	-0.02440558272596727	1.809768849363677	0.2474654947373187	1.785271423941766	-6.356123834239435	-0.1474292194088743	-1.522393443508895	0.1975124871667545	-5.258276195939013	-5.258276195935482	-0.6594609046915039	0.02181841972203414	-1.154021061925716	-0.850548511099986	-2.088534323127237e-08	-3.423218650270522e-07	6.440024035326368e-08	-3.029767284962697e-08	-4.325169766304141e-08	-2.364222125640157e-07	-3.420837630761465e-08
1.08	-0.4960760662086405	0.01091915174924201	0.6248448416769202	1.641416257640445	-0.3546292038225816	0.1271323763187386	-0.4362955242088875	1.405518444416528	1.405518444416543	0.02008800809849797	-0.1745299140708489	0.425243290814408	0.2303749798791309	0.007969711589810689	0.01094613298327631	0.1709789474803074	-0.4622235399410886	-0.01011367690930439	-0.1794951980021935	0.004088194935648	-0.5622891725645646	-0.5622891725645894	-0.05055767113015749	6.299841584320737e-05	-0.1561399045188673	-0.1046186063030797	-0.2603733097563476	0.04571556072505943	-0.006047474738045693	-0.2339988233629255	-0.08280235292896145	0.01118421961194791	0.2201312100220464	-57.42409445265487	7.444672153269067	-4.035006883270526	8.108947141026917	-536.587431512132	-61.52873320109048	-0.02445163773524971	1.809926066059866	0.2659167769760033	1.771568129989756	-6.349670783483355	-0.1660660137623904	-1.53671288867968	0.2827595264106688	-5.255481260006535	-5.255481260006307	-0.666952043559658	-0.03121108865584547	-1.155196709866911	-0.8705530343758728	-2.075607529428328e-08	-3.760651282905321e-07	7.748651655949738e-08	-3.976100499785495e-08	-4.6059435651008e-08	-2.51877753601311e-07	-3.961470927241264e-08
